<svg width="1600" height="900" viewBox="0 0 1600 900" fill="none" xmlns="http://www.w3.org/2000/svg">
  <defs>
    <linearGradient id="bg2" x1="0" y1="0" x2="1600" y2="900" gradientUnits="userSpaceOnUse">
      <stop stop-color="#061426"/>
      <stop offset="1" stop-color="#0A2B42"/>
    </linearGradient>
  </defs>
  <rect width="1600" height="900" fill="url(#bg2)"/>

  <g stroke="#4CC3FF" stroke-width="3" opacity="0.75">
    <path d="M220 620L500 450L780 590L1080 360L1380 520"/>
    <path d="M220 320L500 450L780 290L1080 360L1380 240"/>
    <path d="M500 450L500 220"/>
    <path d="M780 590L780 290"/>
    <path d="M1080 360L1080 640"/>
  </g>

  <g fill="#132E46" stroke="#8EE6FF" stroke-width="4">
    <rect x="140" y="260" width="160" height="120" rx="16"/>
    <rect x="140" y="560" width="160" height="120" rx="16"/>
    <rect x="430" y="160" width="140" height="100" rx="16"/>
    <rect x="430" y="400" width="140" height="100" rx="16"/>
    <rect x="710" y="230" width="140" height="100" rx="16"/>
    <rect x="710" y="530" width="140" height="100" rx="16"/>
    <rect x="1010" y="300" width="140" height="100" rx="16"/>
    <rect x="1010" y="600" width="140" height="100" rx="16"/>
    <rect x="1310" y="180" width="170" height="120" rx="16"/>
    <rect x="1310" y="460" width="170" height="120" rx="16"/>
  </g>

  <g fill="#B2F5FF" font-family="Arial, sans-serif" font-size="28" font-weight="700">
    <text x="175" y="330">Mail</text>
    <text x="165" y="630">Endpoints</text>
    <text x="455" y="222">MFA</text>
    <text x="446" y="462">Firewall</text>
    <text x="744" y="292">RBAC</text>
    <text x="725" y="592">Backups</text>
    <text x="1036" y="362">SIEM</text>
    <text x="1036" y="662">MDM</text>
    <text x="1368" y="252">Identity</text>
    <text x="1360" y="532">Policies</text>
  </g>
</svg>
