<svg width="1600" height="900" viewBox="0 0 1600 900" fill="none" xmlns="http://www.w3.org/2000/svg">
  <defs>
    <linearGradient id="bg" x1="0" y1="0" x2="1600" y2="900" gradientUnits="userSpaceOnUse">
      <stop stop-color="#04111E"/>
      <stop offset="0.55" stop-color="#0A1E36"/>
      <stop offset="1" stop-color="#10304A"/>
    </linearGradient>
    <radialGradient id="glow" cx="0" cy="0" r="1" gradientUnits="userSpaceOnUse" gradientTransform="translate(420 250) rotate(22) scale(520 340)">
      <stop stop-color="#2BD4C9" stop-opacity="0.35"/>
      <stop offset="1" stop-color="#2BD4C9" stop-opacity="0"/>
    </radialGradient>
    <linearGradient id="shield" x1="0" y1="0" x2="1" y2="1">
      <stop stop-color="#9DE8E1"/>
      <stop offset="1" stop-color="#24B7AD"/>
    </linearGradient>
  </defs>

  <rect width="1600" height="900" fill="url(#bg)"/>
  <rect width="1600" height="900" fill="url(#glow)"/>

  <g opacity="0.25" stroke="#7BC6FF" stroke-width="2">
    <path d="M120 140H1480"/>
    <path d="M120 250H1480"/>
    <path d="M120 360H1480"/>
    <path d="M120 470H1480"/>
    <path d="M120 580H1480"/>
    <path d="M120 690H1480"/>
    <path d="M220 80V820"/>
    <path d="M430 80V820"/>
    <path d="M640 80V820"/>
    <path d="M850 80V820"/>
    <path d="M1060 80V820"/>
    <path d="M1270 80V820"/>
  </g>

  <g transform="translate(640 170)">
    <path d="M160 0L320 58V240C320 350 247 449 160 496C73 449 0 350 0 240V58L160 0Z" fill="url(#shield)" fill-opacity="0.9"/>
    <path d="M160 78L247 110V241C247 298 211 353 160 385C109 353 73 298 73 241V110L160 78Z" fill="#06243B" fill-opacity="0.82"/>
    <path d="M118 246L148 278L212 210" stroke="#95F3E4" stroke-width="22" stroke-linecap="round" stroke-linejoin="round"/>
  </g>

  <g fill="#95F3E4" fill-opacity="0.5">
    <circle cx="320" cy="760" r="7"/>
    <circle cx="460" cy="760" r="7"/>
    <circle cx="600" cy="760" r="7"/>
    <circle cx="740" cy="760" r="7"/>
    <circle cx="880" cy="760" r="7"/>
    <circle cx="1020" cy="760" r="7"/>
    <circle cx="1160" cy="760" r="7"/>
    <circle cx="1300" cy="760" r="7"/>
  </g>
</svg>
